<?xml version="1.0" encoding="UTF-8" standalone="no"?>
<!-- Created with Inkscape (http://www.inkscape.org/) -->

<svg
   xmlns:dc="http://purl.org/dc/elements/1.1/"
   xmlns:cc="http://creativecommons.org/ns#"
   xmlns:rdf="http://www.w3.org/1999/02/22-rdf-syntax-ns#"
   xmlns:svg="http://www.w3.org/2000/svg"
   xmlns="http://www.w3.org/2000/svg"
   xmlns:sodipodi="http://sodipodi.sourceforge.net/DTD/sodipodi-0.dtd"
   xmlns:inkscape="http://www.inkscape.org/namespaces/inkscape"
   width="126.52412mm"
   height="28.222221mm"
   viewBox="0 0 448.3138 99.999997"
   id="svg4139"
   version="1.1"
   inkscape:version="0.91 r13725"
   sodipodi:docname="combo_blue.svg">
  <defs
     id="defs4141" />
  <sodipodi:namedview
     id="base"
     pagecolor="#ffffff"
     bordercolor="#666666"
     borderopacity="1.0"
     inkscape:pageopacity="0.0"
     inkscape:pageshadow="2"
     inkscape:zoom="1.979899"
     inkscape:cx="144.35482"
     inkscape:cy="-0.32786712"
     inkscape:document-units="px"
     inkscape:current-layer="layer1"
     showgrid="false"
     inkscape:window-width="1970"
     inkscape:window-height="1129"
     inkscape:window-x="2662"
     inkscape:window-y="40"
     inkscape:window-maximized="0"
     fit-margin-top="0"
     fit-margin-left="0"
     fit-margin-right="0"
     fit-margin-bottom="0" />
  <metadata
     id="metadata4144">
    <rdf:RDF>
      <cc:Work
         rdf:about="">
        <dc:format>image/svg+xml</dc:format>
        <dc:type
           rdf:resource="http://purl.org/dc/dcmitype/StillImage" />
        <dc:title></dc:title>
      </cc:Work>
    </rdf:RDF>
  </metadata>
  <g
     inkscape:label="Layer 1"
     inkscape:groupmode="layer"
     id="layer1"
     transform="translate(-168.66354,-526.64674)">
    <g
       id="g4186"
       transform="matrix(1.3696926,0,0,1.3696926,-62.353665,-231.66666)"
       inkscape:export-filename="/Users/jen/Design/zube/assets/brand_mark_logo_combo.png"
       inkscape:export-xdpi="90"
       inkscape:export-ydpi="90"
       style="fill:#0d83dd">
      <g
         inkscape:export-ydpi="90"
         inkscape:export-xdpi="90"
         inkscape:export-filename="/Users/jen/Design/zube/logo-google-apps.png"
         transform="matrix(0.42986596,0,0,0.42986596,75.494051,516.56132)"
         id="g4505"
         style="fill:#0d83dd">
        <path
           inkscape:connector-curvature="0"
           id="path4317"
           style="font-style:normal;font-variant:normal;font-weight:500;font-stretch:normal;font-size:200px;line-height:125%;font-family:'Input Sans';-inkscape-font-specification:'Input Sans Medium';text-align:start;letter-spacing:0px;word-spacing:0px;writing-mode:lr-tb;text-anchor:start;fill:#0d83dd;fill-opacity:1;stroke:none"
           d="m 581.32776,246.5597 -103.16401,0 0,-23.26248 68.16915,-74.84447 -68.16915,0 0,-23.26248 103.16401,0 0,23.26248 -67.7646,74.84447 67.7646,0 0,23.26248" />
        <path
           style="font-style:normal;font-variant:normal;font-weight:500;font-stretch:normal;font-size:200px;line-height:125%;font-family:'Input Sans';-inkscape-font-specification:'Input Sans Medium';text-align:start;letter-spacing:0px;word-spacing:0px;writing-mode:lr-tb;text-anchor:start;fill:#0d83dd;fill-opacity:1;stroke:none"
           sodipodi:nodetypes="ccsccscsccccccccc"
           inkscape:connector-curvature="0"
           id="path4319"
           d="m 640.10839,248.58253 c -11.59757,-1e-5 -20.7677,-3.77594 -27.5104,-11.32782 -6.74277,-7.68671 -10.11414,-18.00311 -10.11412,-30.9492 l 0,-81.11524 30.34236,0 0,76.66503 c -6e-5,7.14734 1.61821,12.60896 4.85478,16.38487 3.23645,3.64111 7.95637,5.46164 14.15976,5.46162 5.25926,2e-5 10.58603,-1.61823 15.9803,-4.85478 5.39412,-3.37134 10.58602,-8.15868 15.57575,-14.36205 l 0,-79.29469 30.34236,0 0,121.36943 -30.34236,0 0,-19.43176 c 0,0 -9.41721,9.27742 -19.58978,15.46197 -6.6775,3.83283 -15.20285,5.99261 -23.69865,5.99262" />
        <path
           style="font-style:normal;font-variant:normal;font-weight:500;font-stretch:normal;font-size:200px;line-height:125%;font-family:'Input Sans';-inkscape-font-specification:'Input Sans Medium';text-align:start;letter-spacing:0px;word-spacing:0px;writing-mode:lr-tb;text-anchor:start;fill:#0d83dd;fill-opacity:1;stroke:none"
           sodipodi:nodetypes="cccccccccssccccccccccccc"
           inkscape:connector-curvature="0"
           id="path4321"
           d="m 790.71933,249.69508 c -8.09135,0 -17.32892,-1.01141 -27.71269,-3.03423 -10.249,-2.02282 -19.08199,-5.25934 -26.49899,-9.70956 l 0,-150.700371 30.34237,0 0,59.504761 c 9.17965,-8.13664 13.63602,-11.10701 17.18539,-13.17293 5.96091,-3.72594 16.12643,-7.89804 25.90075,-7.89818 11.59742,1.2e-4 20.76754,3.97834 27.5104,11.93467 6.87748,7.95653 10.31627,19.08205 10.3164,33.37659 l 0,33.78115 c -1.3e-4,15.6432 -5.39432,27.24072 -16.18258,34.79257 -10.78851,7.41703 -24.40884,11.12553 -40.86105,11.12553 m 1.01142,-23.06019 c 7.28207,3e-5 13.35054,-1.61824 18.20541,-4.85478 4.98953,-3.37134 7.48434,-9.50723 7.48444,-18.40769 l 0,-31.35377 c -1e-4,-8.36093 -1.82063,-14.22711 -5.46162,-17.59857 -3.64117,-3.37128 -8.56338,-5.05696 -14.7666,-5.05706 -5.52914,1e-4 -10.72104,1.28122 -15.57575,3.84337 -4.85485,2.56233 -9.77704,6.54054 -14.76661,11.93466 l 0,55.22308 c 3.37131,1.88801 7.01239,3.43883 10.92324,4.6525 4.04558,1.07886 8.69808,1.61829 13.95749,1.61826" />
        <path
           inkscape:connector-curvature="0"
           id="path4323"
           style="font-style:normal;font-variant:normal;font-weight:500;font-stretch:normal;font-size:200px;line-height:125%;font-family:'Input Sans';-inkscape-font-specification:'Input Sans Medium';text-align:start;letter-spacing:0px;word-spacing:0px;writing-mode:lr-tb;text-anchor:start;fill:#0d83dd;fill-opacity:1;stroke:none"
           d="m 978.16373,218.84701 c -4.58519,10.92327 -11.19308,18.60999 -19.82368,23.0602 -8.49597,4.45021 -20.83517,6.67531 -37.01767,6.67532 -17.66606,-1e-5 -31.48868,-4.11308 -41.46789,-12.33923 -9.84444,-8.22614 -14.76664,-19.9585 -14.76661,-35.19714 l 0,-30.54463 c -3e-5,-15.23852 5.05703,-26.90346 15.17118,-34.99486 10.11407,-8.22603 23.66698,-12.3391 40.65875,-12.33923 16.99163,1.3e-4 30.47711,4.1132 40.45649,12.33923 9.97913,8.22625 14.96875,20.16091 14.96889,35.80398 l 0,20.6328 -80.91295,0 0,9.10271 c -6e-5,8.76561 2.15761,15.37349 6.47303,19.82367 4.45015,4.31539 11.39517,6.47306 20.83508,6.47305 8.90034,1e-5 15.4408,-1.28111 19.6214,-3.84337 4.1804,-2.56222 7.28206,-6.54043 9.30498,-11.93466 l 26.499,7.28216 m -82.73349,-48.34548 0,3.64107 50.57058,0 0,-2.62966 c -10e-5,-9.84433 -2.02292,-16.9242 -6.06846,-21.23965 -4.04574,-4.31526 -10.45135,-6.47294 -19.21683,-6.47304 -8.76564,1e-4 -15.17124,2.15778 -19.21683,6.47304 -4.0457,4.18059 -6.06852,10.92333 -6.06846,20.22824" />
      </g>
      <g
         style="fill:#0d83dd;fill-opacity:1"
         transform="matrix(0.32052806,0,0,0.32052806,94.78526,472.09234)"
         id="g4362">
        <path
           sodipodi:nodetypes="ccccc"
           inkscape:connector-curvature="0"
           id="rect4472-7-8-1-1-8-1-8-4"
           d="m 230.48928,359.33817 129.16508,68.15316 0,54.69546 -129.16508,-68.15442 z"
           style="fill:#0d83dd;fill-opacity:1;stroke:none;stroke-width:20;stroke-linecap:round;stroke-linejoin:round;stroke-miterlimit:4;stroke-dasharray:none;stroke-opacity:1" />
        <path
           style="fill:#0d83dd;fill-opacity:1;stroke:none;stroke-width:20;stroke-linecap:round;stroke-linejoin:round;stroke-miterlimit:4;stroke-dasharray:none;stroke-opacity:1"
           d="M 80.181641,-5.2558594 -39.289062,57.78125 12.541016,85.128906 80.181641,49.439453 Z"
           transform="translate(279.47321,296.44196)"
           id="path4187-5"
           inkscape:connector-curvature="0"
           sodipodi:nodetypes="ccccc" />
        <path
           style="fill:#0d83dd;fill-opacity:1;stroke:none;stroke-width:20;stroke-linecap:round;stroke-linejoin:round;stroke-miterlimit:4;stroke-dasharray:none;stroke-opacity:1"
           d="m 97.787109,-5.2558594 0,54.6953124 77.333981,40.804688 -77.333981,40.804689 0,54.69531 129.164111,-68.15334 0,-54.694594 z"
           transform="translate(279.47321,296.44196)"
           id="path4197-8"
           inkscape:connector-curvature="0"
           sodipodi:nodetypes="cccccccc" />
      </g>
    </g>
  </g>
</svg>
