<?xml version="1.0" encoding="utf-8"?>
<!-- Generator: Adobe Illustrator 15.1.0, SVG Export Plug-In . SVG Version: 6.00 Build 0)  -->
<!DOCTYPE svg PUBLIC "-//W3C//DTD SVG 1.1//EN" "http://www.w3.org/Graphics/SVG/1.1/DTD/svg11.dtd">
<svg version="1.1" id="ubuntu__x5F__white_x26_orange"
	 xmlns="http://www.w3.org/2000/svg" xmlns:xlink="http://www.w3.org/1999/xlink" x="0px" y="0px" width="425.197px"
	 height="209.764px" viewBox="0 0 425.197 209.764" enable-background="new 0 0 425.197 209.764" xml:space="preserve">
<g>
	<circle fill="#DD4814" cx="350.12" cy="90.017" r="16.966"/>
	<path fill="#FFFFFF" d="M339.538,87.978c-1.127,0-2.036,0.912-2.036,2.039c0,1.123,0.909,2.037,2.036,2.037
		c1.128,0,2.039-0.914,2.039-2.037C341.577,88.89,340.666,87.978,339.538,87.978z M354.093,97.244
		c-0.976,0.559-1.308,1.807-0.747,2.778c0.563,0.978,1.81,1.31,2.784,0.748c0.976-0.562,1.311-1.809,0.747-2.783
		C356.314,97.013,355.067,96.679,354.093,97.244z M343.968,90.017c0-2.016,0.998-3.797,2.529-4.873l-1.488-2.498
		c-1.783,1.191-3.111,3.015-3.664,5.148c0.646,0.524,1.056,1.324,1.056,2.223c0,0.894-0.408,1.691-1.056,2.219
		c0.553,2.134,1.881,3.955,3.664,5.146l1.488-2.496C344.966,93.81,343.968,92.031,343.968,90.017z M349.92,84.06
		c3.112,0,5.663,2.385,5.932,5.43l2.904-0.047c-0.144-2.244-1.124-4.26-2.631-5.741c-0.775,0.291-1.672,0.25-2.445-0.199
		c-0.772-0.447-1.26-1.199-1.394-2.021c-0.754-0.207-1.547-0.321-2.366-0.321c-1.408,0-2.741,0.332-3.922,0.918l1.415,2.536
		C348.175,84.259,349.026,84.06,349.92,84.06z M349.92,95.968c-0.895,0-1.745-0.197-2.507-0.553l-1.415,2.537
		c1.181,0.588,2.514,0.916,3.922,0.916c0.819,0,1.612-0.111,2.366-0.32c0.134-0.82,0.62-1.572,1.394-2.021
		c0.775-0.446,1.67-0.489,2.445-0.194c1.507-1.484,2.487-3.5,2.631-5.746l-2.904-0.041C355.583,93.585,353.032,95.968,349.92,95.968
		z M354.093,82.789c0.975,0.561,2.222,0.229,2.782-0.748c0.563-0.972,0.229-2.22-0.745-2.781c-0.976-0.562-2.221-0.229-2.784,0.746
		C352.785,80.98,353.117,82.226,354.093,82.789z"/>
	<g>
		<path fill="#FFFFFF" d="M117.552,134.53c-1.725,0.433-3.999,0.89-6.825,1.374c-2.83,0.483-6.103,0.727-9.817,0.727
			c-3.23,0-5.952-0.472-8.159-1.413c-2.209-0.941-3.986-2.274-5.332-3.998c-1.348-1.724-2.315-3.757-2.908-6.101
			c-0.594-2.342-0.889-4.939-0.889-7.796V93.734h7.513v21.974c0,5.117,0.809,8.778,2.425,10.985
			c1.615,2.211,4.334,3.314,8.158,3.314c0.81,0,1.643-0.029,2.505-0.083c0.86-0.053,1.671-0.122,2.426-0.202
			c0.752-0.081,1.438-0.161,2.059-0.242c0.619-0.08,1.064-0.173,1.334-0.283V93.734h7.514v40.796H117.552z"/>
		<path fill="#FFFFFF" d="M135.888,95.591c0.915-0.592,2.305-1.211,4.161-1.857c1.857-0.646,3.999-0.969,6.422-0.969
			c3.017,0,5.696,0.539,8.039,1.615c2.343,1.078,4.322,2.584,5.938,4.522c1.614,1.939,2.839,4.257,3.675,6.947
			c0.834,2.695,1.253,5.656,1.253,8.888c0,3.393-0.5,6.45-1.494,9.168c-0.999,2.721-2.412,5.021-4.241,6.907
			c-1.832,1.885-4.039,3.34-6.625,4.362c-2.584,1.022-5.493,1.535-8.726,1.535c-3.502,0-6.598-0.244-9.289-0.729
			c-2.692-0.484-4.901-0.97-6.625-1.454V74.347l7.514-1.293v22.537H135.888z M135.888,129.197c0.756,0.217,1.818,0.421,3.192,0.605
			c1.373,0.191,3.082,0.284,5.129,0.284c4.039,0,7.271-1.334,9.693-3.999c2.425-2.666,3.637-6.45,3.637-11.35
			c0-2.152-0.216-4.173-0.646-6.062c-0.433-1.883-1.133-3.514-2.103-4.885c-0.969-1.375-2.222-2.451-3.756-3.232
			s-3.38-1.172-5.533-1.172c-2.049,0-3.932,0.352-5.653,1.051c-1.728,0.701-3.046,1.429-3.961,2.183V129.197L135.888,129.197z"/>
		<path fill="#FFFFFF" d="M207.301,134.53c-1.725,0.433-4,0.89-6.825,1.374c-2.827,0.483-6.101,0.727-9.816,0.727
			c-3.23,0-5.95-0.472-8.158-1.413c-2.209-0.941-3.985-2.274-5.331-3.998c-1.348-1.724-2.314-3.757-2.909-6.101
			c-0.593-2.342-0.889-4.939-0.889-7.796V93.734h7.512v21.974c0,5.117,0.81,8.778,2.425,10.985c1.616,2.211,4.336,3.314,8.158,3.314
			c0.811,0,1.645-0.029,2.505-0.083c0.859-0.053,1.668-0.122,2.425-0.202c0.754-0.081,1.439-0.161,2.061-0.242
			c0.618-0.08,1.062-0.173,1.331-0.283V93.734h7.514L207.301,134.53L207.301,134.53z"/>
		<path fill="#FFFFFF" d="M218.125,94.947c1.723-0.432,4.01-0.889,6.867-1.375c2.852-0.483,6.138-0.727,9.854-0.727
			c3.341,0,6.113,0.473,8.32,1.414c2.208,0.943,3.972,2.262,5.293,3.959c1.317,1.695,2.246,3.729,2.786,6.098
			c0.538,2.373,0.808,4.984,0.808,7.837v23.589h-7.513v-21.974c0-2.584-0.176-4.791-0.524-6.624
			c-0.352-1.833-0.93-3.312-1.737-4.441c-0.809-1.134-1.885-1.953-3.231-2.466c-1.346-0.514-3.018-0.768-5.007-0.768
			c-0.811,0-1.645,0.027-2.504,0.08c-0.862,0.055-1.686,0.121-2.464,0.203c-0.784,0.08-1.481,0.176-2.103,0.281
			c-0.619,0.108-1.062,0.188-1.333,0.241v35.464h-7.512V94.947L218.125,94.947z"/>
		<path fill="#FFFFFF" d="M269.42,93.734h15.914v6.302H269.42v19.388c0,2.1,0.161,3.84,0.485,5.212s0.809,2.451,1.454,3.229
			c0.646,0.781,1.452,1.333,2.423,1.656c0.97,0.324,2.1,0.487,3.392,0.487c2.314,0,4.147-0.258,5.494-0.771
			c1.345-0.511,2.262-0.874,2.748-1.09l1.614,6.142c-0.755,0.378-2.088,0.862-3.999,1.453c-1.912,0.593-4.078,0.889-6.502,0.889
			c-2.856,0-5.212-0.362-7.07-1.089c-1.855-0.729-3.351-1.817-4.481-3.273c-1.132-1.453-1.926-3.243-2.383-5.372
			c-0.46-2.126-0.688-4.59-0.688-7.391V82.021l7.513-1.293V93.734L269.42,93.734z"/>
		<path fill="#FFFFFF" d="M326.21,134.53c-1.726,0.433-3.999,0.89-6.826,1.374c-2.826,0.483-6.101,0.727-9.813,0.727
			c-3.232,0-5.952-0.472-8.161-1.413s-3.986-2.274-5.33-3.998c-1.348-1.724-2.316-3.757-2.91-6.101
			c-0.592-2.342-0.889-4.939-0.889-7.796V93.734h7.515v21.974c0,5.117,0.809,8.778,2.424,10.985
			c1.614,2.211,4.334,3.314,8.159,3.314c0.808,0,1.642-0.029,2.504-0.083c0.859-0.053,1.667-0.122,2.422-0.202
			c0.755-0.081,1.441-0.161,2.062-0.242c0.617-0.08,1.062-0.173,1.334-0.283V93.734h7.513v40.796H326.21z"/>
	</g>
</g>
</svg>
